<svg width="360" height="380" viewBox="0 0 360 380" fill="none" xmlns="http://www.w3.org/2000/svg">
<path d="M264.319 365.669L241.919 351.371L271.096 359.725C289.425 342.214 302.852 317.953 302.852 317.953C302.852 317.953 253.76 287.976 223.52 295.975C193.279 303.975 187.476 324.745 193.342 346.922C199.209 369.098 214.523 384.282 244.763 376.283C251.494 374.502 258.105 370.622 264.319 365.669Z" fill="#F06B6B"/>
<path d="M239.691 346.759L238.2 347.154C220.851 351.649 206.559 352.303 195.523 349.087C195.361 349.043 195.205 348.989 195.044 348.945L195.265 348.2L195.487 347.486C207.448 351.128 222.573 349.535 237.707 345.618C238.196 345.497 238.693 345.373 239.185 345.235C245.577 343.521 251.945 341.418 258.066 339.127C258.542 338.954 259.022 338.772 259.503 338.589C267.567 335.525 275.16 332.174 281.706 329.068C282.169 328.851 282.631 328.626 283.085 328.403C294.142 323.102 301.977 318.605 303.707 317.595C303.92 317.475 304.036 317.405 304.064 317.39L304.448 318.039L304.458 318.044L304.844 318.7C304.817 318.715 304.429 318.952 303.702 319.365C300.989 320.928 293.599 325.078 283.668 329.86C283.219 330.073 282.757 330.298 282.294 330.516C276.985 333.041 271.013 335.718 264.675 338.263C263.084 338.905 261.51 339.519 259.951 340.105C259.473 340.295 258.992 340.477 258.517 340.65C251.9 343.127 245.625 345.164 239.691 346.759Z" fill="white"/>
<path d="M283.668 329.86C283.471 329.383 283.271 328.899 283.085 328.403C282.577 327.058 282.138 325.688 281.77 324.298C280.195 318.376 279.969 312.176 281.108 306.156C280.635 305.949 280.162 305.743 279.68 305.531C278.422 311.88 278.632 318.433 280.294 324.689C280.687 326.172 281.158 327.634 281.706 329.068C281.89 329.557 282.089 330.041 282.294 330.516C283.959 334.442 286.21 338.092 288.971 341.343C289.293 340.918 289.61 340.503 289.921 340.097C287.344 337.011 285.237 333.561 283.668 329.86V329.86Z" fill="white"/>
<path d="M259.951 340.105C259.787 339.604 259.638 339.099 259.503 338.589C259.455 338.436 259.412 338.274 259.371 338.119C257.673 331.7 257.552 324.966 259.019 318.49C260.486 312.014 263.497 305.99 267.795 300.929C267.282 300.749 266.768 300.569 266.25 300.398C261.93 305.63 258.919 311.817 257.466 318.444C256.013 325.072 256.16 331.95 257.895 338.509C257.95 338.716 258.004 338.923 258.066 339.127C258.21 339.642 258.36 340.147 258.517 340.65C261.004 348.423 265.678 355.314 271.979 360.5C272.352 360.148 272.725 359.797 273.095 359.438C266.926 354.41 262.358 347.691 259.951 340.105V340.105Z" fill="white"/>
<path d="M239.691 346.759C239.51 346.255 239.344 345.746 239.185 345.235C239.017 344.688 238.855 344.138 238.709 343.585C236.437 334.957 237.021 325.825 240.374 317.557C243.726 309.288 249.667 302.329 257.306 297.719C256.62 297.545 255.942 297.369 255.26 297.21C247.722 302.121 241.922 309.283 238.686 317.678C235.45 326.073 234.942 335.275 237.233 343.975C237.38 344.529 237.533 345.08 237.707 345.618C237.861 346.138 238.027 346.647 238.2 347.154C241.777 357.371 249.102 365.848 258.693 370.867C259.198 370.568 259.69 370.248 260.189 369.927C250.604 365.164 243.251 356.854 239.691 346.759Z" fill="white"/>
<path d="M210.053 377.016L99.2817 332.428C92.6437 329.748 87.3401 324.543 84.5344 317.957C81.7288 311.371 81.6501 303.941 84.3157 297.297L197.177 16.9099C199.857 10.272 205.061 4.96839 211.647 2.16267C218.234 -0.643048 225.664 -0.721745 232.308 1.94384L343.079 46.5313C349.717 49.2119 355.02 54.4161 357.826 61.0022C360.632 67.5882 360.71 75.0183 358.045 81.6623L245.184 362.049C242.503 368.687 237.299 373.991 230.713 376.797C224.127 379.603 216.697 379.681 210.053 377.016Z" fill="#3F3D56"/>
<path d="M338.709 53.8084L326.379 48.8454C325.278 48.4035 324.047 48.4164 322.956 48.8814C321.864 49.3463 321.002 50.2252 320.558 51.3252C319.65 53.5742 317.887 55.3712 315.656 56.3218C313.425 57.2723 310.908 57.2987 308.657 56.3953L248.353 32.1219C246.104 31.2142 244.307 29.4512 243.356 27.2199C242.406 24.9886 242.38 22.4713 243.283 20.2206C243.725 19.1197 243.712 17.8885 243.247 16.7972C242.782 15.7058 241.903 14.8435 240.803 14.3995L229.931 10.0233C224.892 8.00239 219.257 8.06248 214.262 10.1904C209.267 12.3183 205.32 16.3403 203.286 21.3743L91.2275 299.768C89.2066 304.808 89.2666 310.443 91.3945 315.438C93.5224 320.433 97.5443 324.38 102.578 326.413L211.356 370.199C216.396 372.22 222.031 372.159 227.026 370.032C232.021 367.904 235.968 363.882 238.001 358.848L350.06 80.4534C352.081 75.4143 352.021 69.7793 349.893 64.7843C347.765 59.7894 343.743 55.8422 338.709 53.8084V53.8084Z" fill="white"/>
<path d="M324.594 167.571C324.015 167.337 323.552 166.883 323.307 166.308C323.062 165.733 323.055 165.084 323.288 164.504L340.503 121.736C340.737 121.156 341.191 120.693 341.766 120.449C342.341 120.204 342.989 120.198 343.569 120.431C344.149 120.664 344.612 121.118 344.857 121.693C345.102 122.268 345.109 122.916 344.877 123.496L327.662 166.265C327.428 166.844 326.973 167.307 326.398 167.552C325.823 167.797 325.174 167.804 324.594 167.571V167.571Z" fill="#3F3D56"/>
<path d="M168.232 88.8196C167.652 88.5856 167.189 88.1312 166.944 87.5562C166.699 86.9811 166.692 86.3324 166.925 85.7523L170.837 76.0322C170.953 75.7444 171.123 75.4822 171.34 75.2605C171.557 75.0388 171.815 74.862 172.1 74.7402C172.385 74.6185 172.691 74.5541 173.001 74.5509C173.311 74.5476 173.619 74.6055 173.907 74.7212C174.194 74.837 174.456 75.0083 174.677 75.2254C174.899 75.4425 175.075 75.7011 175.196 75.9864C175.317 76.2717 175.381 76.5781 175.384 76.888C175.386 77.198 175.328 77.5055 175.212 77.7928L171.299 87.5129C171.065 88.0925 170.611 88.5556 170.036 88.8006C169.46 89.0455 168.812 89.0524 168.232 88.8196V88.8196Z" fill="#3F3D56"/>
<path d="M272.171 130.1L225.114 111.159C224.149 110.768 223.379 110.011 222.971 109.054C222.563 108.097 222.551 107.018 222.937 106.051L234.231 77.9937C234.622 77.0296 235.378 76.2594 236.335 75.8516C237.292 75.4437 238.372 75.4314 239.338 75.8172L286.395 94.7584C287.359 95.1492 288.129 95.9058 288.537 96.8628C288.945 97.8197 288.957 98.8993 288.572 99.8654L277.278 127.923C276.887 128.887 276.13 129.658 275.173 130.065C274.216 130.473 273.137 130.486 272.171 130.1ZM238.545 77.7911C238.102 77.6144 237.607 77.6202 237.168 77.8072C236.73 77.9942 236.383 78.3472 236.204 78.789L224.911 106.845C224.734 107.288 224.74 107.783 224.927 108.221C225.114 108.66 225.467 109.007 225.909 109.186L272.962 128.126C273.405 128.303 273.901 128.297 274.339 128.11C274.778 127.923 275.125 127.57 275.305 127.128L286.598 99.0723C286.774 98.6294 286.768 98.1346 286.581 97.696C286.394 97.2574 286.041 96.9106 285.599 96.7315L238.545 77.7911Z" fill="#3F3D56"/>
<path d="M272.45 112.246L272.447 112.245L236.122 97.6239C235.616 97.4186 235.185 97.0623 234.888 96.6035C234.591 96.1447 234.443 95.6057 234.463 95.0596L235.149 78.0464C235.166 77.6224 235.285 77.2087 235.495 76.8402C235.705 76.4716 236.001 76.1588 236.357 75.9281C236.713 75.6975 237.119 75.5557 237.541 75.5146C237.964 75.4736 238.39 75.5345 238.784 75.6922L286.856 94.9476C287.506 95.2081 288.027 95.715 288.304 96.3578C288.581 97.0005 288.593 97.7269 288.337 98.3784L288.495 98.5362L286.987 100.038L286.987 100.037L275.308 111.665C274.941 112.032 274.475 112.282 273.966 112.386C273.458 112.489 272.931 112.44 272.45 112.246V112.246Z" fill="#3F3D56"/>
<path d="M245.172 113.484L229.017 106.981C228.619 106.82 228.301 106.509 228.133 106.114C227.965 105.719 227.961 105.274 228.121 104.876C228.281 104.478 228.593 104.16 228.987 103.992C229.382 103.824 229.827 103.819 230.225 103.979L246.381 110.482C246.779 110.642 247.096 110.954 247.264 111.349C247.432 111.743 247.437 112.189 247.277 112.587C247.117 112.985 246.805 113.303 246.41 113.471C246.016 113.639 245.57 113.644 245.172 113.484V113.484Z" fill="#3F3D56"/>
<path d="M255.175 108.101C257.359 108.101 259.129 106.331 259.129 104.146C259.129 101.962 257.359 100.192 255.175 100.192C252.99 100.192 251.22 101.962 251.22 104.146C251.22 106.331 252.99 108.101 255.175 108.101Z" fill="white"/>
<path d="M202.002 304.426L154.944 285.484C153.98 285.093 153.21 284.337 152.802 283.38C152.394 282.422 152.382 281.343 152.768 280.377L164.062 252.319C164.453 251.355 165.209 250.585 166.166 250.177C167.123 249.769 168.203 249.757 169.169 250.142L216.226 269.084C217.19 269.474 217.96 270.231 218.368 271.188C218.776 272.145 218.788 273.224 218.403 274.191L207.109 302.249C206.718 303.213 205.961 303.983 205.004 304.391C204.047 304.799 202.968 304.811 202.002 304.426V304.426ZM168.376 252.116C167.933 251.94 167.438 251.945 166.999 252.132C166.561 252.319 166.214 252.672 166.035 253.114L154.742 281.17C154.565 281.613 154.571 282.108 154.758 282.546C154.945 282.985 155.298 283.332 155.74 283.511L202.793 302.451C203.236 302.628 203.732 302.622 204.17 302.435C204.609 302.248 204.956 301.895 205.136 301.453L216.429 273.398C216.605 272.955 216.599 272.46 216.412 272.021C216.225 271.583 215.872 271.236 215.43 271.057L168.376 252.116Z" fill="#3F3D56"/>
<path d="M202.281 286.572L202.278 286.57L165.953 271.949C165.447 271.744 165.016 271.388 164.719 270.929C164.422 270.47 164.274 269.931 164.294 269.385L164.98 252.372C164.997 251.948 165.115 251.534 165.326 251.165C165.536 250.797 165.831 250.484 166.188 250.253C166.544 250.023 166.95 249.881 167.372 249.84C167.795 249.799 168.221 249.86 168.615 250.017L216.687 269.273C217.337 269.533 217.857 270.04 218.135 270.683C218.412 271.326 218.424 272.052 218.168 272.704L218.325 272.861L216.818 274.363L216.818 274.362L205.139 285.99C204.772 286.357 204.306 286.607 203.797 286.711C203.289 286.814 202.762 286.766 202.281 286.572Z" fill="#3F3D56"/>
<path d="M175.003 287.809L158.848 281.306C158.45 281.146 158.132 280.834 157.964 280.439C157.796 280.044 157.792 279.599 157.952 279.201C158.112 278.803 158.424 278.485 158.818 278.317C159.213 278.149 159.658 278.144 160.056 278.304L176.212 284.807C176.409 284.886 176.588 285.004 176.74 285.153C176.892 285.301 177.013 285.478 177.096 285.674C177.179 285.869 177.223 286.079 177.225 286.292C177.228 286.504 177.188 286.715 177.108 286.912C177.029 287.109 176.912 287.289 176.763 287.44C176.614 287.592 176.437 287.713 176.242 287.796C176.046 287.88 175.836 287.924 175.624 287.926C175.411 287.928 175.2 287.888 175.003 287.809V287.809Z" fill="#3F3D56"/>
<path d="M185.006 282.426C187.19 282.426 188.96 280.656 188.96 278.472C188.96 276.287 187.19 274.517 185.006 274.517C182.821 274.517 181.051 276.287 181.051 278.472C181.051 280.656 182.821 282.426 185.006 282.426Z" fill="white"/>
<path d="M220.644 233.367C244.534 233.367 263.9 214.001 263.9 190.111C263.9 166.221 244.534 146.854 220.644 146.854C196.754 146.854 177.387 166.221 177.387 190.111C177.387 214.001 196.754 233.367 220.644 233.367Z" fill="#5138EE"/>
<path d="M237.06 217.252L190.003 198.311C189.039 197.92 188.269 197.164 187.861 196.207C187.453 195.249 187.441 194.17 187.827 193.204L199.12 165.146C199.511 164.182 200.268 163.412 201.225 163.004C202.182 162.596 203.261 162.584 204.228 162.969L251.284 181.911C252.248 182.301 253.019 183.058 253.426 184.015C253.834 184.972 253.847 186.051 253.461 187.018L242.167 215.076C241.776 216.04 241.02 216.81 240.063 217.218C239.106 217.625 238.026 217.638 237.06 217.252V217.252ZM203.434 164.943C202.991 164.767 202.497 164.772 202.058 164.959C201.619 165.146 201.273 165.499 201.093 165.941L189.8 193.997C189.624 194.44 189.63 194.935 189.817 195.373C190.004 195.812 190.357 196.159 190.798 196.338L237.852 215.278C238.295 215.455 238.79 215.449 239.229 215.262C239.668 215.075 240.015 214.722 240.194 214.28L251.487 186.224C251.664 185.782 251.658 185.287 251.471 184.848C251.284 184.41 250.931 184.063 250.489 183.884L203.434 164.943Z" fill="#3F3D56"/>
<path d="M237.339 199.399L237.337 199.397L201.012 184.776C200.505 184.571 200.074 184.215 199.778 183.756C199.481 183.297 199.332 182.758 199.353 182.212L200.038 165.199C200.056 164.775 200.174 164.361 200.384 163.992C200.595 163.624 200.89 163.311 201.246 163.08C201.602 162.85 202.009 162.708 202.431 162.667C202.853 162.626 203.279 162.687 203.673 162.844L251.746 182.1C252.396 182.36 252.916 182.867 253.194 183.51C253.471 184.153 253.483 184.879 253.227 185.531L253.384 185.688L251.877 187.19L251.877 187.189L240.198 198.817C239.831 199.184 239.364 199.434 238.856 199.538C238.348 199.641 237.82 199.593 237.339 199.399V199.399Z" fill="#3F3D56"/>
<path d="M210.062 200.636L193.906 194.133C193.509 193.973 193.191 193.661 193.023 193.266C192.855 192.871 192.85 192.426 193.011 192.028C193.171 191.63 193.482 191.312 193.877 191.144C194.271 190.976 194.717 190.971 195.115 191.131L211.27 197.634C211.668 197.795 211.986 198.106 212.154 198.501C212.322 198.896 212.326 199.341 212.166 199.739C212.006 200.137 211.694 200.455 211.3 200.623C210.905 200.791 210.46 200.796 210.062 200.636V200.636Z" fill="#3F3D56"/>
<path d="M103.751 221.774C103.755 220.947 103.578 220.128 103.232 219.377C102.885 218.625 102.379 217.959 101.747 217.424C101.115 216.89 100.374 216.5 99.5753 216.283C98.7767 216.066 97.9403 216.027 97.1249 216.168L87.3852 198.568L82.5364 207.828L92.5288 223.122C92.8568 224.476 93.67 225.663 94.8145 226.457C95.959 227.252 97.3552 227.599 98.7385 227.433C100.122 227.266 101.396 226.599 102.32 225.556C103.244 224.513 103.753 223.167 103.751 221.774H103.751Z" fill="#9E616A"/>
<path d="M97.4582 150.685L87.4424 149.982C87.4424 149.982 86.2087 149.814 82.8158 155.194C79.4229 160.575 67.7927 187.858 67.7927 187.858L88.1684 217.433L94.7862 210.845L82.9549 187.047L94.2953 171.12L97.4582 150.685Z" fill="#CACACA"/>
<path d="M207.876 182.657C207.204 182.913 206.485 183.018 205.769 182.966C205.052 182.914 204.356 182.706 203.729 182.356C203.101 182.005 202.558 181.522 202.138 180.939C201.718 180.356 201.431 179.689 201.297 178.983L184.02 176.439L190.066 169.672L205.545 173.125C206.746 172.978 207.959 173.277 208.954 173.964C209.949 174.652 210.657 175.681 210.944 176.856C211.232 178.031 211.078 179.27 210.512 180.339C209.947 181.408 209.009 182.233 207.876 182.657V182.657Z" fill="#9E616A"/>
<path d="M141.464 371.907H148.847L152.359 343.43L141.463 343.431L141.464 371.907Z" fill="#9E616A"/>
<path d="M139.581 369.497L141.659 369.497L149.772 366.198L154.12 369.497H154.121C156.578 369.497 158.935 370.473 160.673 372.211C162.41 373.948 163.387 376.305 163.387 378.762V379.063L139.581 379.064L139.581 369.497Z" fill="#2F2E41"/>
<path d="M96.9287 371.907H104.312L107.824 343.43L96.9277 343.431L96.9287 371.907Z" fill="#9E616A"/>
<path d="M95.0456 369.497L97.1237 369.497L105.237 366.198L109.585 369.497H109.586C112.043 369.497 114.4 370.473 116.137 372.211C117.875 373.948 118.851 376.305 118.852 378.762V379.063L95.046 379.064L95.0456 369.497Z" fill="#2F2E41"/>
<path d="M99.7766 231.678L94.897 261.092L96.5377 355.644H108.548L126.999 255.629L140.272 354L152.348 353.477L158.374 254.182L152.959 228.837L99.7766 231.678Z" fill="#2F2E41"/>
<path d="M143.904 144.204L131.05 142.31L128.317 135.214L110.207 135.189L106.138 144.454L87.6327 150.041L102.965 202.709C102.965 202.709 94.5151 222.282 96.5932 222.366C98.6713 222.449 99.6951 225.421 98.2456 226.982C96.7961 228.544 93.8878 227.551 95.3419 229.922C96.1749 231.206 96.7329 232.648 96.9807 234.158C96.9807 234.158 158.299 247.249 154.902 230.369C154.48 228.27 149.356 199.198 149.356 199.198C149.356 199.198 153.818 194.261 151.911 192.299C150.004 190.337 151.011 169.617 151.011 169.617L143.904 144.204Z" fill="#CACACA"/>
<path d="M141.8 146.505L143.904 144.204L172.486 160.963L196.671 170.609L197.14 179.047L165.731 175.296L143.501 164.427L141.8 146.505Z" fill="#CACACA"/>
<path d="M133.853 114.863C133.853 116.85 133.462 118.817 132.701 120.653C131.941 122.489 130.826 124.157 129.421 125.561C128.016 126.966 126.348 128.081 124.513 128.841C122.677 129.602 120.71 129.993 118.723 129.993C117.531 129.991 116.344 129.852 115.184 129.579C112.421 128.916 109.9 127.488 107.91 125.458C105.92 123.429 104.542 120.881 103.933 118.105C103.324 115.329 103.509 112.438 104.466 109.762C105.424 107.086 107.115 104.734 109.347 102.974C111.579 101.215 114.261 100.12 117.086 99.8135C119.912 99.5073 122.766 100.003 125.323 101.243C127.88 102.484 130.036 104.419 131.545 106.828C133.053 109.236 133.853 112.021 133.853 114.863V114.863Z" fill="#9E616A"/>
<path d="M122.775 127.132L111.908 129.228C110.896 129.502 109.835 129.546 108.804 129.357C107.187 128.931 106.104 127.439 105.277 125.987C101.44 119.183 100.232 111.208 101.881 103.574C102.252 101.888 103.045 99.9573 104.737 99.6141C105.228 99.5143 105.783 99.5537 106.172 99.2373C106.745 98.7714 106.557 97.7838 105.994 97.3055C105.383 96.8841 104.662 96.6498 103.92 96.6313C104.399 96.0675 104.993 95.6117 105.661 95.2937C106.33 94.9758 107.058 94.803 107.798 94.7866L104.891 93.1714C106.291 92.2 108.172 92.2887 109.824 92.7085C111.475 93.1282 113.065 93.839 114.762 93.998C116.892 94.1978 118.994 93.5132 121.117 93.2487C124.285 92.9051 127.485 93.4772 130.338 94.8971C133.191 96.317 135.576 98.5251 137.212 101.26C137.789 102.172 138.154 103.201 138.282 104.273C138.34 104.809 138.273 105.351 138.085 105.856C137.897 106.361 137.594 106.816 137.2 107.183C136.01 108.184 134.136 108.037 132.983 109.081C132.094 109.885 131.873 111.184 131.823 112.381C131.773 113.579 131.83 114.83 131.317 115.913C130.803 116.996 129.464 117.81 128.393 117.272C128.346 115.789 126.636 114.738 125.184 115.045C123.732 115.351 122.66 116.672 122.242 118.096C121.824 119.52 121.948 121.041 122.13 122.514C122.312 123.987 122.548 125.477 122.344 126.947" fill="#2F2E41"/>
<path d="M218.376 195.692C220.56 195.692 222.331 193.922 222.331 191.738C222.331 189.553 220.56 187.783 218.376 187.783C216.192 187.783 214.421 189.553 214.421 191.738C214.421 193.922 216.192 195.692 218.376 195.692Z" fill="#5138EE"/>
<path d="M304.003 379.776H0.556569C0.40881 379.775 0.267245 379.716 0.162914 379.612C0.0585836 379.507 0 379.365 0 379.218C0 379.07 0.0585836 378.928 0.162914 378.823C0.267245 378.719 0.40881 378.66 0.556569 378.659H304.003C304.151 378.659 304.293 378.718 304.398 378.823C304.502 378.928 304.561 379.07 304.561 379.218C304.561 379.366 304.502 379.508 304.398 379.612C304.293 379.717 304.151 379.776 304.003 379.776Z" fill="#CACACA"/>
</svg>
