<svg id="SvgjsSvg1001" width="288" height="288" xmlns="http://www.w3.org/2000/svg" version="1.1" xmlns:xlink="http://www.w3.org/1999/xlink" xmlns:svgjs="http://svgjs.com/svgjs"><defs id="SvgjsDefs1002"></defs><g id="SvgjsG1008" transform="matrix(1,0,0,1,0,0)"><svg xmlns="http://www.w3.org/2000/svg" enable-background="new 0 0 495.003 495.003" viewBox="0 0 495.003 495.003" width="288" height="288"><path d="M164.711 456.687c0 2.966 1.647 5.686 4.266 7.072 2.617 1.385 5.799 1.207 8.245-.468l55.09-37.616-67.6-32.22V456.687zM492.431 32.443c-1.513-1.395-3.466-2.125-5.44-2.125-1.19 0-2.377.264-3.5.816L7.905 264.422c-4.861 2.389-7.937 7.353-7.904 12.783.033 5.423 3.161 10.353 8.057 12.689l125.342 59.724 250.62-205.99L164.455 364.414l156.145 74.4c1.918.919 4.012 1.376 6.084 1.376 1.768 0 3.519-.322 5.186-.977 3.637-1.438 6.527-4.318 7.97-7.956L494.436 41.257C495.66 38.188 494.862 34.679 492.431 32.443z" fill="#5138ee" class="color000 svgShape"></path></svg></g></svg>